<?xml version="1.0" standalone="no"?>
<!DOCTYPE svg PUBLIC "-//W3C//DTD SVG 20010904//EN"
 "http://www.w3.org/TR/2001/REC-SVG-20010904/DTD/svg10.dtd">
<svg version="1.0" xmlns="http://www.w3.org/2000/svg"
 width="483.000000pt" height="233.000000pt" viewBox="0 0 483.000000 233.000000"
 preserveAspectRatio="xMidYMid meet">
<metadata>
Created by potrace 1.15, written by Peter Selinger 2001-2017
</metadata>
<g transform="translate(0.000000,233.000000) scale(0.100000,-0.100000)"
fill="#000000" stroke="none">
<path d="M3447 2203 c-4 -3 -7 -34 -7 -68 0 -78 -22 -124 -137 -275 -47 -63
-97 -138 -110 -166 -80 -175 -34 -395 103 -493 112 -81 239 -27 135 57 -57 46
-85 110 -78 181 5 64 27 111 93 207 24 36 44 73 44 82 0 15 2 15 10 2 5 -8 10
-52 10 -98 0 -91 15 -141 57 -184 26 -27 57 -36 67 -20 3 5 0 24 -5 43 -8 25
-8 46 1 79 l13 45 23 -50 c59 -131 53 -192 -27 -281 -42 -46 -48 -58 -39 -74
41 -77 219 8 278 133 57 121 53 206 -17 352 -50 104 -69 168 -73 245 -3 81
-19 91 -65 40 -28 -32 -43 -38 -43 -17 0 20 -57 135 -87 173 -14 20 -49 49
-77 65 -55 31 -59 32 -69 22z"/>
<path d="M640 975 l0 -385 40 0 40 0 0 385 0 385 -40 0 -40 0 0 -385z"/>
<path d="M2490 1213 l0 -147 -27 26 c-38 36 -73 48 -143 48 -72 0 -105 -12
-148 -53 -47 -46 -72 -121 -72 -221 0 -162 53 -252 164 -277 74 -16 152 0 197
42 17 16 33 29 35 29 2 0 4 -16 4 -35 0 -33 2 -35 35 -35 l35 0 0 385 0 385
-40 0 -40 0 0 -147z m-73 -163 c54 -32 68 -71 68 -190 0 -129 -14 -162 -82
-192 -112 -50 -202 13 -219 152 -10 88 11 167 56 212 34 35 43 38 91 38 36 0
65 -7 86 -20z"/>
<path d="M3909 1233 c-6 -16 -13 -41 -16 -57 -5 -22 -16 -33 -49 -48 -30 -13
-44 -25 -44 -38 0 -17 7 -20 40 -20 l40 0 0 -171 c0 -195 10 -249 51 -284 34
-28 103 -41 156 -28 33 8 38 13 41 42 l3 32 -44 -6 c-49 -8 -100 11 -111 40
-3 9 -6 97 -6 196 l0 179 75 0 75 0 0 30 0 30 -75 0 -75 0 0 65 c0 63 -1 65
-25 65 -19 0 -28 -8 -36 -27z"/>
<path d="M280 1129 c-50 -20 -93 -63 -119 -118 -22 -48 -26 -69 -26 -151 0
-81 4 -103 26 -151 49 -105 158 -148 299 -118 l50 11 0 40 c0 34 -3 39 -17 33
-10 -4 -52 -9 -93 -12 -64 -4 -80 -1 -108 17 -48 30 -72 89 -72 180 0 86 25
149 72 183 35 26 112 33 165 14 l42 -14 10 30 c6 16 11 33 11 38 0 26 -185 40
-240 18z"/>
<path d="M1005 1121 c-85 -38 -135 -133 -135 -256 0 -122 46 -211 134 -258 57
-30 174 -30 231 0 89 46 128 125 128 253 0 136 -37 210 -125 254 -65 33 -170
36 -233 7z m221 -93 c41 -46 58 -105 52 -190 -7 -91 -32 -137 -91 -167 -86
-43 -176 -9 -212 81 -24 61 -23 172 3 231 30 67 70 89 151 84 58 -3 66 -6 97
-39z"/>
<path d="M2905 1125 c-17 -7 -39 -23 -49 -34 -26 -29 -36 -26 -36 9 0 28 -3
30 -35 30 l-35 0 0 -270 0 -270 40 0 40 0 0 178 c0 153 3 183 20 219 28 62 70
85 147 81 111 -7 123 -34 123 -295 l0 -183 40 0 40 0 0 198 c0 111 -5 214 -11
237 -13 48 -43 83 -86 101 -40 17 -158 17 -198 -1z"/>
<path d="M4344 1126 c-48 -22 -101 -83 -120 -140 -27 -80 -23 -199 9 -269 55
-120 200 -166 370 -115 34 10 37 14 37 50 0 21 -1 38 -2 38 -2 0 -25 -7 -52
-15 -77 -23 -176 -20 -216 8 -42 27 -67 69 -76 125 l-7 42 188 0 188 0 -5 73
c-6 90 -34 147 -90 184 -35 23 -54 28 -117 31 -49 1 -87 -3 -107 -12z m182
-89 c26 -24 37 -43 41 -75 l6 -42 -141 0 -140 0 8 33 c17 77 65 116 143 117
40 0 53 -5 83 -33z"/>
<path d="M1502 918 c4 -230 11 -261 64 -301 69 -51 213 -44 280 15 31 27 34
28 34 10 0 -39 11 -52 46 -52 l34 0 0 270 0 270 -45 0 -45 0 0 -177 c0 -214
-11 -251 -82 -283 -54 -24 -93 -25 -138 -2 -56 28 -60 45 -60 265 l0 197 -46
0 -46 0 4 -212z"/>
<path d="M3370 860 l0 -270 40 0 40 0 0 270 0 270 -40 0 -40 0 0 -270z"/>
<path d="M3620 860 l0 -270 40 0 40 0 0 270 0 270 -40 0 -40 0 0 -270z"/>
</g>
</svg>
